<!--
  How to use this SVG?
  ====================

  The layers
  ++++++++++

  This SVG has 6 layers by key:
  - layer 1 : No mod
  - layer 2 : Maj
  - layer 3 : AltGr
  - layer 4 : AltGr + Maj
  - layer 5 (dk) : dk
  - layer 6 (dk) : dk + Maj

  Layers 5 and 6 correspond to main deadkey. Other deadkeys are not represented.

  Default display
  +++++++++++++++

  The default display represents layers on a key like this.

  ========
  | 2  4 |
  |      |
  | 1  3 |
  ========

  AltGr display
  +++++++++++++

  If `altgr` is added as a class to base `svg` tag, the layers display
  like default display except layers 3 and 4 are highlighted.

  Deadkey display
  +++++++++++++++

  Deadkeys are represented as red characters in different layers.

  Adding classes to base `svg` tag replaces layers 3 and 4 with main deadkey
  layers and highlight them. The keys are represented as:

  ========
  | 2  6 |
  |      |
  | 1  5 |
  ========

  Mixed display
  +++++++++++++

  Adding mixed class to main svg tag shows a mixed view with altgr and 1dk layers.
  -->
<svg xmlns="http://www.w3.org/2000/svg" viewBox="0 0 900 300" platform="gnu" theme="" class="iso intlBackslash dk">
  <style>
    rect, path {
      fill: #f8f8f8;
      stroke: #666;
      stroke-width: .5px;
    }
    text {
      fill: #333;
      font: normal 20px sans-serif;
      text-align: center;
      text-anchor: middle;
    }

    .specialKey text { font-size: 14px; }
    .specialKey rect { fill: #e4e4e4; }

    #row_AD { transform: translate(64px,  64px); }
    #row_AC { transform: translate(64px, 124px); }
    #row_AB { transform: translate(64px, 184px); }
    #row_AA { transform: translate(64px, 244px); }
    .left   { transform: translate(-15px, 0); }
    .right  { transform: translate(+15px, 0); }

    #odk    { fill: #7e7; }
    .level3 { fill: green; }

    .layer, .level1, .level2 { opacity: 0.5; }

    .deadKey {
      fill: red;
      opacity: 0.8;
      font-size: 24px;
    }

    .diacritic { font-weight: bolder; }

    @media (prefers-color-scheme: dark) {
      .specialKey rect { fill: #333; }
      rect, path       { fill: #444; }
      text             { fill: #bbb; }
      #odk             { fill: #484; }
      .deadKey         { fill: #f44; }
      .level3          { fill: #6b6; }
    }
  </style>
  <g id="row_AE" text-anchor="middle">
    <g class="left">
      <g class="specialKey" finger="l5" id="Escape" transform="translate(0, 0)">
        <rect class="ergo" width="67" height="52" rx="5" ry="5"/>
        <text class="ergo" width="22" height="22" x="16.4" y="42.8">⎋</text>
      </g>
      <g class="pinkyKey" finger="l5" id="Backquote" transform="translate(0, 0)">
        <rect class="specialKey jis" width="52" height="52" rx="5" ry="5"/>
        <rect class="ansi alt iso" width="52" height="52" rx="5" ry="5"/>
        <rect class="ol60" width="67" height="52" rx="5" ry="5"/>
        <text class="jis" width="22" height="22" x="26" y="20">半角</text>
        <text class="jis" width="22" height="22" x="26" y="32">全角</text>
        <text class="jis" width="22" height="22" x="26" y="44">漢字</text>
        <g class="ansi key">
          <text class="level1" width="22" height="22" x="12.8" y="43.4">`</text>
          <text class="level2" width="22" height="22" x="12.8" y="20.6">~</text>
          <text class="level3" width="22" height="22" x="38" y="43.4"/>
          <text class="level4" width="22" height="22" x="38" y="20.6"/>
          <text class="level5 dk" width="22" height="22" x="38" y="43.4"/>
          <text class="level6 dk" width="22" height="22" x="38" y="20.6"/>
        </g>
      </g>
      <g class="numberKey" finger="l5" id="Digit1" transform="translate(60, 0)">
        <rect class="" width="52" height="52" rx="5" ry="5"/>
        <g class="key">
          <text class="level1" width="22" height="22" x="12.8" y="43.4">1</text>
          <text class="level2" width="22" height="22" x="12.8" y="20.6">€</text>
          <text class="level3" width="22" height="22" x="38" y="43.4">₁</text>
          <text class="level4" width="22" height="22" x="38" y="20.6">¹</text>
          <text class="level5 dk" width="22" height="22" x="38" y="43.4">¡</text>
          <text class="level6 dk" width="22" height="22" x="38" y="20.6">„</text>
        </g>
      </g>
      <g class="numberKey" finger="l5" id="Digit2" transform="translate(120, 0)">
        <rect class="" width="52" height="52" rx="5" ry="5"/>
        <g class="key">
          <text class="level1" width="22" height="22" x="12.8" y="43.4">2</text>
          <text class="level2" width="22" height="22" x="12.8" y="20.6">@</text>
          <text class="level3" width="22" height="22" x="38" y="43.4">₂</text>
          <text class="level4" width="22" height="22" x="38" y="20.6">²</text>
          <text class="level5 dk" width="22" height="22" x="38" y="43.4">«</text>
          <text class="level6 dk" width="22" height="22" x="38" y="20.6">“</text>
        </g>
      </g>
      <g class="numberKey" finger="l4" id="Digit3" transform="translate(180, 0)">
        <rect class="" width="52" height="52" rx="5" ry="5"/>
        <g class="key">
          <text class="level1" width="22" height="22" x="12.8" y="43.4">3</text>
          <text class="level2" width="22" height="22" x="12.8" y="20.6">#</text>
          <text class="level3" width="22" height="22" x="38" y="43.4">₃</text>
          <text class="level4" width="22" height="22" x="38" y="20.6">³</text>
          <text class="level5 dk" width="22" height="22" x="38" y="43.4">»</text>
          <text class="level6 dk" width="22" height="22" x="38" y="20.6">”</text>
        </g>
      </g>
      <g class="numberKey" finger="l3" id="Digit4" transform="translate(240, 0)">
        <rect class="" width="52" height="52" rx="5" ry="5"/>
        <g class="key">
          <text class="level1" width="22" height="22" x="12.8" y="43.4">4</text>
          <text class="level2" width="22" height="22" x="12.8" y="20.6">$</text>
          <text class="level3" width="22" height="22" x="38" y="43.4">₄</text>
          <text class="level4" width="22" height="22" x="38" y="20.6">⁴</text>
          <text class="level5 dk" width="22" height="22" x="38" y="43.4">€</text>
          <text class="level6 dk" width="22" height="22" x="38" y="20.6">¢</text>
        </g>
      </g>
      <g class="numberKey" finger="l2" id="Digit5" transform="translate(300, 0)">
        <rect class="" width="52" height="52" rx="5" ry="5"/>
        <g class="key">
          <text class="level1" width="22" height="22" x="12.8" y="43.4">5</text>
          <text class="level2" width="22" height="22" x="12.8" y="20.6">%</text>
          <text class="level3" width="22" height="22" x="38" y="43.4">₅</text>
          <text class="level4" width="22" height="22" x="38" y="20.6">⁵</text>
          <text class="level5 dk" width="22" height="22" x="38" y="43.4">£</text>
          <text class="level6 dk" width="22" height="22" x="38" y="20.6">‰</text>
        </g>
      </g>
    </g>
    <g class="right">
      <g class="numberKey" finger="l2" id="Digit6" transform="translate(360, 0)">
        <rect class="" width="52" height="52" rx="5" ry="5"/>
        <g class="key">
          <text class="level1" width="22" height="22" x="12.8" y="43.4">6</text>
          <text class="level2" width="22" height="22" x="12.8" y="20.6">^</text>
          <text class="level3" width="22" height="22" x="38" y="43.4">₆</text>
          <text class="level4" width="22" height="22" x="38" y="20.6">⁶</text>
          <text class="level5 dk" width="22" height="22" x="38" y="43.4">¥</text>
          <text class="level6 dk" width="22" height="22" x="38" y="20.6"/>
        </g>
      </g>
      <g class="numberKey" finger="r2" id="Digit7" transform="translate(420, 0)">
        <rect class="" width="52" height="52" rx="5" ry="5"/>
        <g class="key">
          <text class="level1" width="22" height="22" x="12.8" y="43.4">7</text>
          <text class="level2" width="22" height="22" x="12.8" y="20.6">&amp;</text>
          <text class="level3" width="22" height="22" x="38" y="43.4">₇</text>
          <text class="level4" width="22" height="22" x="38" y="20.6">⁷</text>
          <text class="level5 dk" width="22" height="22" x="38" y="43.4">¤</text>
          <text class="level6 dk" width="22" height="22" x="38" y="20.6"/>
        </g>
      </g>
      <g class="numberKey" finger="r2" id="Digit8" transform="translate(480, 0)">
        <rect class="" width="52" height="52" rx="5" ry="5"/>
        <g class="key">
          <text class="level1" width="22" height="22" x="12.8" y="43.4">8</text>
          <text class="level2" width="22" height="22" x="12.8" y="20.6">*</text>
          <text class="level3" width="22" height="22" x="38" y="43.4">₈</text>
          <text class="level4" width="22" height="22" x="38" y="20.6">⁸</text>
          <text class="level5 dk" width="22" height="22" x="38" y="43.4">§</text>
          <text class="level6 dk" width="22" height="22" x="38" y="20.6"/>
        </g>
      </g>
      <g class="numberKey" finger="r3" id="Digit9" transform="translate(540, 0)">
        <rect class="" width="52" height="52" rx="5" ry="5"/>
        <g class="key">
          <text class="level1" width="22" height="22" x="12.8" y="43.4">9</text>
          <text class="level2" width="22" height="22" x="12.8" y="20.6">«</text>
          <text class="level3" width="22" height="22" x="38" y="43.4">₉</text>
          <text class="level4" width="22" height="22" x="38" y="20.6">⁹</text>
          <text class="level5 dk" width="22" height="22" x="38" y="43.4">¶</text>
          <text class="level6 dk" width="22" height="22" x="38" y="20.6"/>
        </g>
      </g>
      <g class="numberKey" finger="r4" id="Digit0" transform="translate(600, 0)">
        <rect class="" width="52" height="52" rx="5" ry="5"/>
        <g class="key">
          <text class="level1" width="22" height="22" x="12.8" y="43.4">0</text>
          <text class="level2" width="22" height="22" x="12.8" y="20.6">»</text>
          <text class="level3" width="22" height="22" x="38" y="43.4">₀</text>
          <text class="level4" width="22" height="22" x="38" y="20.6">⁰</text>
          <text class="level5 dk" width="22" height="22" x="38" y="43.4">°</text>
          <text class="level6 dk" width="22" height="22" x="38" y="20.6"/>
        </g>
      </g>
      <g class="pinkyKey" finger="r5" id="Minus" transform="translate(660, 0)">
        <rect class="" width="52" height="52" rx="5" ry="5"/>
        <g class="key">
          <text class="level1" width="22" height="22" x="12.8" y="43.4">/</text>
          <text class="level2" width="22" height="22" x="12.8" y="20.6">_</text>
          <text class="level3" width="22" height="22" x="38" y="43.4"/>
          <text class="level4" width="22" height="22" x="38" y="20.6"/>
          <text class="level5 dk" width="22" height="22" x="38" y="43.4">÷</text>
          <text class="level6 dk" width="22" height="22" x="38" y="20.6">–</text>
        </g>
      </g>
      <g class="pinkyKey" finger="r5" id="Equal" transform="translate(720, 0)">
        <rect class="ansi" width="52" height="52" rx="5" ry="5"/>
        <rect class="ol60" width="67" height="52" rx="5" ry="5"/>
        <g class="key">
          <text class="level1" width="22" height="22" x="12.8" y="43.4">=</text>
          <text class="level2" width="22" height="22" x="12.8" y="20.6">+</text>
          <text class="level3" width="22" height="22" x="38" y="43.4"/>
          <text class="level4" width="22" height="22" x="38" y="20.6"/>
          <text class="level5 dk" width="22" height="22" x="38" y="43.4">≠</text>
          <text class="level6 dk" width="22" height="22" x="38" y="20.6">±</text>
        </g>
      </g>
      <g class="pinkyKey" finger="r5" id="IntlYen" transform="translate(780, 0)">
        <rect class="" width="52" height="52" rx="5" ry="5"/>
        <g class="key"/>
      </g>
      <g class="specialKey" finger="r5" id="Backspace" transform="translate(780, 0)">
        <rect class="ansi" width="112" height="52" rx="5" ry="5"/>
        <rect class="ol60" width="67" height="112" rx="5" ry="5" y="-60"/>
        <rect class="ol40 ol50" width="67" height="52" rx="5" ry="5"/>
        <rect class="alt" width="52" height="52" rx="5" ry="5" x="60"/>
        <text class="ansi" width="22" height="22" x="16.4" y="42.8">⌫</text>
        <text class="ergo" width="22" height="22" x="16.4" y="42.8">⌫</text>
        <text class="alt" width="22" height="22" x="16.4" y="42.8" transform="translate(60, 0)">⌫</text>
      </g>
    </g>
  </g>
  <g id="row_AD" text-anchor="middle">
    <g class="left">
      <g class="specialKey" finger="l5" id="Tab" transform="translate(0, 0)">
        <rect class="" width="82" height="52" rx="5" ry="5"/>
        <rect class="ergo" width="67" height="52" rx="5" ry="5"/>
        <text class="" width="22" height="22" x="16.4" y="42.8">↹</text>
        <text class="ergo" width="22" height="22" x="16.4" y="42.8">↹</text>
      </g>
      <g class="letterKey" finger="l5" id="KeyQ" transform="translate(90, 0)">
        <rect class="" width="52" height="52" rx="5" ry="5"/>
        <g class="key">
          <text class="level1" width="22" height="22" x="12.8" y="43.4"/>
          <text class="level2" width="22" height="22" x="12.8" y="20.6">J</text>
          <text class="level3" width="22" height="22" x="38" y="43.4">@</text>
          <text class="level4" width="22" height="22" x="38" y="20.6"/>
          <text class="level5 dk" width="22" height="22" x="38" y="43.4">â</text>
          <text class="level6 dk" width="22" height="22" x="38" y="20.6">Â</text>
        </g>
      </g>
      <g class="letterKey" finger="l4" id="KeyW" transform="translate(150, 0)">
        <rect class="" width="52" height="52" rx="5" ry="5"/>
        <g class="key">
          <text class="level1 deadKey diacritic" width="22" height="22" x="12.8" y="43.4">★</text>
          <text class="level2" width="22" height="22" x="12.8" y="20.6">!</text>
          <text class="level3" width="22" height="22" x="38" y="43.4">&lt;</text>
          <text class="level4" width="22" height="22" x="38" y="20.6">≤</text>
          <text class="level5 dk deadKey diacritic" width="22" height="22" x="38" y="43.4">¨</text>
          <text class="level6 dk" width="22" height="22" x="38" y="20.6"/>
        </g>
      </g>
      <g class="letterKey" finger="l3" id="KeyE" transform="translate(210, 0)">
        <rect class="" width="52" height="52" rx="5" ry="5"/>
        <g class="key">
          <text class="level1" width="22" height="22" x="12.8" y="43.4"/>
          <text class="level2" width="22" height="22" x="12.8" y="20.6">O</text>
          <text class="level3" width="22" height="22" x="38" y="43.4">&gt;</text>
          <text class="level4" width="22" height="22" x="38" y="20.6">≥</text>
          <text class="level5 dk" width="22" height="22" x="38" y="43.4">ô</text>
          <text class="level6 dk" width="22" height="22" x="38" y="20.6">Ô</text>
        </g>
      </g>
      <g class="letterKey" finger="l2" id="KeyR" transform="translate(270, 0)">
        <rect class="" width="52" height="52" rx="5" ry="5"/>
        <g class="key">
          <text class="level1" width="22" height="22" x="12.8" y="43.4"/>
          <text class="level2" width="22" height="22" x="12.8" y="20.6">F</text>
          <text class="level3" width="22" height="22" x="38" y="43.4">$</text>
          <text class="level4 deadKey diacritic" width="22" height="22" x="38" y="20.6">¤</text>
          <text class="level5 dk" width="22" height="22" x="38" y="43.4">ê</text>
          <text class="level6 dk" width="22" height="22" x="38" y="20.6">Ê</text>
        </g>
      </g>
      <g class="letterKey" finger="l2" id="KeyT" transform="translate(330, 0)">
        <rect class="" width="52" height="52" rx="5" ry="5"/>
        <g class="key">
          <text class="level1" width="22" height="22" x="12.8" y="43.4"/>
          <text class="level2" width="22" height="22" x="12.8" y="20.6">K</text>
          <text class="level3" width="22" height="22" x="38" y="43.4">%</text>
          <text class="level4" width="22" height="22" x="38" y="20.6">‰</text>
          <text class="level5 dk" width="22" height="22" x="38" y="43.4">û</text>
          <text class="level6 dk" width="22" height="22" x="38" y="20.6">Û</text>
        </g>
      </g>
    </g>
    <g class="right">
      <g class="letterKey" finger="r2" id="KeyY" transform="translate(390, 0)">
        <rect class="" width="52" height="52" rx="5" ry="5"/>
        <g class="key">
          <text class="level1" width="22" height="22" x="12.8" y="43.4"/>
          <text class="level2" width="22" height="22" x="12.8" y="20.6">V</text>
          <text class="level3" width="22" height="22" x="38" y="43.4">^</text>
          <text class="level4 deadKey diacritic" width="22" height="22" x="38" y="20.6">^</text>
          <text class="level5 dk" width="22" height="22" x="38" y="43.4">–</text>
          <text class="level6 dk" width="22" height="22" x="38" y="20.6"/>
        </g>
      </g>
      <g class="letterKey" finger="r2" id="KeyU" transform="translate(450, 0)">
        <rect class="" width="52" height="52" rx="5" ry="5"/>
        <g class="key">
          <text class="level1" width="22" height="22" x="12.8" y="43.4"/>
          <text class="level2" width="22" height="22" x="12.8" y="20.6">D</text>
          <text class="level3" width="22" height="22" x="38" y="43.4">&amp;</text>
          <text class="level4 deadKey" width="22" height="22" x="38" y="20.6"/>
          <text class="level5 dk" width="22" height="22" x="38" y="43.4">œ</text>
          <text class="level6 dk" width="22" height="22" x="38" y="20.6">Œ</text>
        </g>
      </g>
      <g class="letterKey" finger="r3" id="KeyI" transform="translate(510, 0)">
        <rect class="" width="52" height="52" rx="5" ry="5"/>
        <g class="key">
          <text class="level1" width="22" height="22" x="12.8" y="43.4"/>
          <text class="level2" width="22" height="22" x="12.8" y="20.6">L</text>
          <text class="level3" width="22" height="22" x="38" y="43.4">*</text>
          <text class="level4" width="22" height="22" x="38" y="20.6">×</text>
          <text class="level5 dk" width="22" height="22" x="38" y="43.4">î</text>
          <text class="level6 dk" width="22" height="22" x="38" y="20.6">Î</text>
        </g>
      </g>
      <g class="letterKey" finger="r4" id="KeyO" transform="translate(570, 0)">
        <rect class="" width="52" height="52" rx="5" ry="5"/>
        <g class="key">
          <text class="level1" width="22" height="22" x="12.8" y="43.4"/>
          <text class="level2" width="22" height="22" x="12.8" y="20.6">C</text>
          <text class="level3" width="22" height="22" x="38" y="43.4">'</text>
          <text class="level4 deadKey diacritic" width="22" height="22" x="38" y="20.6">´</text>
          <text class="level5 dk" width="22" height="22" x="38" y="43.4">ç</text>
          <text class="level6 dk" width="22" height="22" x="38" y="20.6">Ç</text>
        </g>
      </g>
      <g class="letterKey" finger="r5" id="KeyP" transform="translate(630, 0)">
        <rect class="" width="52" height="52" rx="5" ry="5"/>
        <g class="key">
          <text class="level1" width="22" height="22" x="12.8" y="43.4"/>
          <text class="level2" width="22" height="22" x="12.8" y="20.6">Q</text>
          <text class="level3" width="22" height="22" x="38" y="43.4">`</text>
          <text class="level4 deadKey diacritic" width="22" height="22" x="38" y="20.6">`</text>
          <text class="level5 dk" width="22" height="22" x="38" y="43.4"/>
          <text class="level6 dk" width="22" height="22" x="38" y="20.6"/>
        </g>
      </g>
      <g class="pinkyKey" finger="r5" id="BracketLeft" transform="translate(690, 0)">
        <rect class="" width="52" height="52" rx="5" ry="5"/>
        <g class="key">
          <text class="level1" width="22" height="22" x="12.8" y="43.4">(</text>
          <text class="level2" width="22" height="22" x="12.8" y="20.6">[</text>
          <text class="level3" width="22" height="22" x="38" y="43.4"/>
          <text class="level4" width="22" height="22" x="38" y="20.6"/>
          <text class="level5 dk" width="22" height="22" x="38" y="43.4"/>
          <text class="level6 dk" width="22" height="22" x="38" y="20.6"/>
        </g>
      </g>
      <g class="pinkyKey" finger="r5" id="BracketRight" transform="translate(750, 0)">
        <rect class="ansi" width="52" height="52" rx="5" ry="5"/>
        <rect class="ol60" width="67" height="52" rx="5" ry="5"/>
        <g class="key">
          <text class="level1" width="22" height="22" x="12.8" y="43.4">)</text>
          <text class="level2" width="22" height="22" x="12.8" y="20.6">]</text>
          <text class="level3" width="22" height="22" x="38" y="43.4"/>
          <text class="level4" width="22" height="22" x="38" y="20.6"/>
          <text class="level5 dk" width="22" height="22" x="38" y="43.4"/>
          <text class="level6 dk" width="22" height="22" x="38" y="20.6"/>
        </g>
      </g>
      <g class="pinkyKey" finger="r5" id="Backslash" transform="translate(810, 0)">
        <rect class="ansi" width="82" height="52" rx="5" ry="5"/>
        <rect class="iso ol60" width="52" height="52" rx="5" ry="5"/>
        <g class="key">
          <text class="level1" width="22" height="22" x="12.8" y="43.4">\</text>
          <text class="level2" width="22" height="22" x="12.8" y="20.6">|</text>
          <text class="level3" width="22" height="22" x="38" y="43.4"/>
          <text class="level4" width="22" height="22" x="38" y="20.6"/>
          <text class="level5 dk" width="22" height="22" x="38" y="43.4"/>
          <text class="level6 dk" width="22" height="22" x="38" y="20.6"/>
        </g>
      </g>
    </g>
  </g>
  <g id="row_AC" text-anchor="middle">
    <g class="left">
      <g class="specialKey" finger="l5" id="CapsLock" transform="translate(0, 0)">
        <rect class="" width="97" height="52" rx="5" ry="5"/>
        <text class="ansi" width="22" height="22" x="16.4" y="42.8">⇪</text>
        <text class="jis" width="22" height="22" x="23" y="42.8">英数</text>
      </g>
      <g class="letterKey homeKey" finger="l5" id="KeyA" transform="translate(105, 0)">
        <rect class="" width="52" height="52" rx="5" ry="5"/>
        <g class="key">
          <text class="level1" width="22" height="22" x="12.8" y="43.4"/>
          <text class="level2" width="22" height="22" x="12.8" y="20.6">A</text>
          <text class="level3" width="22" height="22" x="38" y="43.4">{</text>
          <text class="level4" width="22" height="22" x="38" y="20.6"/>
          <text class="level5 dk" width="22" height="22" x="38" y="43.4">à</text>
          <text class="level6 dk" width="22" height="22" x="38" y="20.6">À</text>
        </g>
      </g>
      <g class="letterKey homeKey" finger="l4" id="KeyS" transform="translate(165, 0)">
        <rect class="" width="52" height="52" rx="5" ry="5"/>
        <g class="key">
          <text class="level1" width="22" height="22" x="12.8" y="43.4"/>
          <text class="level2" width="22" height="22" x="12.8" y="20.6">I</text>
          <text class="level3" width="22" height="22" x="38" y="43.4">(</text>
          <text class="level4" width="22" height="22" x="38" y="20.6">⁽</text>
          <text class="level5 dk" width="22" height="22" x="38" y="43.4">æ</text>
          <text class="level6 dk" width="22" height="22" x="38" y="20.6">Æ</text>
        </g>
      </g>
      <g class="letterKey homeKey" finger="l3" id="KeyD" transform="translate(225, 0)">
        <rect class="" width="52" height="52" rx="5" ry="5"/>
        <g class="key">
          <text class="level1" width="22" height="22" x="12.8" y="43.4"/>
          <text class="level2" width="22" height="22" x="12.8" y="20.6">E</text>
          <text class="level3" width="22" height="22" x="38" y="43.4">)</text>
          <text class="level4" width="22" height="22" x="38" y="20.6">⁾</text>
          <text class="level5 dk" width="22" height="22" x="38" y="43.4">è</text>
          <text class="level6 dk" width="22" height="22" x="38" y="20.6">È</text>
        </g>
      </g>
      <g class="letterKey homeKey" finger="l2" id="KeyF" transform="translate(285, 0)">
        <rect class="" width="52" height="52" rx="5" ry="5"/>
        <g class="key">
          <text class="level1" width="22" height="22" x="12.8" y="43.4"/>
          <text class="level2" width="22" height="22" x="12.8" y="20.6">U</text>
          <text class="level3" width="22" height="22" x="38" y="43.4">}</text>
          <text class="level4" width="22" height="22" x="38" y="20.6"/>
          <text class="level5 dk" width="22" height="22" x="38" y="43.4">é</text>
          <text class="level6 dk" width="22" height="22" x="38" y="20.6">É</text>
        </g>
      </g>
      <g class="letterKey" finger="l2" id="KeyG" transform="translate(345, 0)">
        <rect class="" width="52" height="52" rx="5" ry="5"/>
        <g class="key">
          <text class="level1" width="22" height="22" x="12.8" y="43.4">,</text>
          <text class="level2" width="22" height="22" x="12.8" y="20.6">;</text>
          <text class="level3" width="22" height="22" x="38" y="43.4">=</text>
          <text class="level4" width="22" height="22" x="38" y="20.6">≠</text>
          <text class="level5 dk" width="22" height="22" x="38" y="43.4">ù</text>
          <text class="level6 dk" width="22" height="22" x="38" y="20.6">Ù</text>
        </g>
      </g>
    </g>
    <g class="right">
      <g class="letterKey" finger="r2" id="KeyH" transform="translate(405, 0)">
        <rect class="" width="52" height="52" rx="5" ry="5"/>
        <g class="key">
          <text class="level1" width="22" height="22" x="12.8" y="43.4"/>
          <text class="level2" width="22" height="22" x="12.8" y="20.6">G</text>
          <text class="level3" width="22" height="22" x="38" y="43.4">\</text>
          <text class="level4 deadKey diacritic" width="22" height="22" x="38" y="20.6">/</text>
          <text class="level5 dk deadKey diacritic" width="22" height="22" x="38" y="43.4">µ</text>
          <text class="level6 dk" width="22" height="22" x="38" y="20.6"/>
        </g>
      </g>
      <g class="letterKey homeKey" finger="r2" id="KeyJ" transform="translate(465, 0)">
        <rect class="" width="52" height="52" rx="5" ry="5"/>
        <g class="key">
          <text class="level1" width="22" height="22" x="12.8" y="43.4"/>
          <text class="level2" width="22" height="22" x="12.8" y="20.6">T</text>
          <text class="level3" width="22" height="22" x="38" y="43.4">+</text>
          <text class="level4" width="22" height="22" x="38" y="20.6">±</text>
          <text class="level5 dk" width="22" height="22" x="38" y="43.4">_</text>
          <text class="level6 dk" width="22" height="22" x="38" y="20.6">_</text>
        </g>
      </g>
      <g class="letterKey homeKey" finger="r3" id="KeyK" transform="translate(525, 0)">
        <rect class="" width="52" height="52" rx="5" ry="5"/>
        <g class="key">
          <text class="level1" width="22" height="22" x="12.8" y="43.4"/>
          <text class="level2" width="22" height="22" x="12.8" y="20.6">S</text>
          <text class="level3" width="22" height="22" x="38" y="43.4">-</text>
          <text class="level4" width="22" height="22" x="38" y="20.6">—</text>
          <text class="level5 dk" width="22" height="22" x="38" y="43.4">ï</text>
          <text class="level6 dk" width="22" height="22" x="38" y="20.6">Ï</text>
        </g>
      </g>
      <g class="letterKey homeKey" finger="r4" id="KeyL" transform="translate(585, 0)">
        <rect class="" width="52" height="52" rx="5" ry="5"/>
        <g class="key">
          <text class="level1" width="22" height="22" x="12.8" y="43.4"/>
          <text class="level2" width="22" height="22" x="12.8" y="20.6">R</text>
          <text class="level3" width="22" height="22" x="38" y="43.4">/</text>
          <text class="level4" width="22" height="22" x="38" y="20.6">÷</text>
          <text class="level5 dk" width="22" height="22" x="38" y="43.4"/>
          <text class="level6 dk" width="22" height="22" x="38" y="20.6"/>
        </g>
      </g>
      <g class="letterKey homeKey" finger="r5" id="Semicolon" transform="translate(645, 0)">
        <rect class="" width="52" height="52" rx="5" ry="5"/>
        <g class="key">
          <text class="level1" width="22" height="22" x="12.8" y="43.4"/>
          <text class="level2" width="22" height="22" x="12.8" y="20.6">N</text>
          <text class="level3" width="22" height="22" x="38" y="43.4">"</text>
          <text class="level4 deadKey diacritic" width="22" height="22" x="38" y="20.6">¨</text>
          <text class="level5 dk" width="22" height="22" x="38" y="43.4">ñ</text>
          <text class="level6 dk" width="22" height="22" x="38" y="20.6">Ñ</text>
        </g>
      </g>
      <g class="pinkyKey" finger="r5" id="Quote" transform="translate(705, 0)">
        <rect class="" width="52" height="52" rx="5" ry="5"/>
        <g class="key">
          <text class="level1" width="22" height="22" x="12.8" y="43.4">'</text>
          <text class="level2" width="22" height="22" x="12.8" y="20.6">"</text>
          <text class="level3" width="22" height="22" x="38" y="43.4"/>
          <text class="level4" width="22" height="22" x="38" y="20.6"/>
          <text class="level5 dk" width="22" height="22" x="38" y="43.4"/>
          <text class="level6 dk" width="22" height="22" x="38" y="20.6"/>
        </g>
      </g>
      <g class="specialKey" finger="r5" id="Enter" transform="translate(765, 0)">
        <path class="alt" d="M50,-60 h72 a5,5 0 0 1 5,5 v102 a5,5 0 0 1 -5,5 h-117 a5,5 0 0 1 -5,-5 v-42 a5,5 0 0 1 5,-5 h35 a5,5 1 0 0 5,-5 v-50 a5,5 0 0 1 5,-5 z"/>
        <path class="iso" d="M50,-60 h72 a5,5 0 0 1 5,5 v102 a5,5 0 0 1 -5,5 h-57 a5,5 0 0 1 -5,-5 v-50 a5,5 1 0 0 -5,-5 h-5 a5,5 0 0 1 -5,-5 v-42 a5,5 0 0 1 5,-5 z"/>
        <rect class="ansi" width="127" height="52" rx="5" ry="5"/>
        <rect class="ol60" width="67" height="112" rx="5" ry="5" y="-60"/>
        <rect class="ol40 ol50" width="67" height="52" rx="5" ry="5"/>
        <text class="ansi alt ergo" width="22" height="22" x="16.4" y="42.8">⏎</text>
        <text class="iso" width="22" height="22" x="16.4" y="42.8" transform="translate(60, 0)">⏎</text>
      </g>
    </g>
  </g>
  <g id="row_AB" text-anchor="middle">
    <g class="left">
      <g class="specialKey" finger="l5" id="ShiftLeft" transform="translate(0, 0)">
        <rect class="ansi alt" width="127" height="52" rx="5" ry="5"/>
        <rect class="iso" width="67" height="52" rx="5" ry="5"/>
        <rect class="ol50 ol60" width="67" height="112" rx="5" ry="5" y="-60"/>
        <rect class="ol40" width="67" height="52" rx="5" ry="5"/>
        <text class="" width="22" height="22" x="16.4" y="42.8">⇧</text>
        <text class="ergo" width="22" height="22" x="16.4" y="42.8">⇧</text>
      </g>
      <g class="letterKey" finger="l5" id="IntlBackslash" transform="translate(75, 0)">
        <rect class="" width="52" height="52" rx="5" ry="5"/>
        <g class="key">
          <text class="level1" width="22" height="22" x="12.8" y="43.4">&lt;</text>
          <text class="level2" width="22" height="22" x="12.8" y="20.6">&gt;</text>
          <text class="level3" width="22" height="22" x="38" y="43.4"/>
          <text class="level4" width="22" height="22" x="38" y="20.6"/>
          <text class="level5 dk" width="22" height="22" x="38" y="43.4"/>
          <text class="level6 dk" width="22" height="22" x="38" y="20.6"/>
        </g>
      </g>
      <g class="letterKey" finger="l5" id="KeyZ" transform="translate(135, 0)">
        <rect class="" width="52" height="52" rx="5" ry="5"/>
        <g class="key">
          <text class="level1" width="22" height="22" x="12.8" y="43.4">.</text>
          <text class="level2" width="22" height="22" x="12.8" y="20.6">:</text>
          <text class="level3" width="22" height="22" x="38" y="43.4">~</text>
          <text class="level4 deadKey diacritic" width="22" height="22" x="38" y="20.6">~</text>
          <text class="level5 dk" width="22" height="22" x="38" y="43.4">…</text>
          <text class="level6 dk" width="22" height="22" x="38" y="20.6"/>
        </g>
      </g>
      <g class="letterKey" finger="l4" id="KeyX" transform="translate(195, 0)">
        <rect class="" width="52" height="52" rx="5" ry="5"/>
        <g class="key">
          <text class="level1" width="22" height="22" x="12.8" y="43.4"/>
          <text class="level2" width="22" height="22" x="12.8" y="20.6">Y</text>
          <text class="level3" width="22" height="22" x="38" y="43.4">[</text>
          <text class="level4" width="22" height="22" x="38" y="20.6"/>
          <text class="level5 dk" width="22" height="22" x="38" y="43.4"/>
          <text class="level6 dk" width="22" height="22" x="38" y="20.6"/>
        </g>
      </g>
      <g class="letterKey" finger="l3" id="KeyC" transform="translate(255, 0)">
        <rect class="" width="52" height="52" rx="5" ry="5"/>
        <g class="key">
          <text class="level1" width="22" height="22" x="12.8" y="43.4">-</text>
          <text class="level2" width="22" height="22" x="12.8" y="20.6">?</text>
          <text class="level3" width="22" height="22" x="38" y="43.4">]</text>
          <text class="level4" width="22" height="22" x="38" y="20.6"/>
          <text class="level5 dk" width="22" height="22" x="38" y="43.4">‑</text>
          <text class="level6 dk" width="22" height="22" x="38" y="20.6">¿</text>
        </g>
      </g>
      <g class="letterKey" finger="l2" id="KeyV" transform="translate(315, 0)">
        <rect class="" width="52" height="52" rx="5" ry="5"/>
        <g class="key">
          <text class="level1" width="22" height="22" x="12.8" y="43.4"/>
          <text class="level2" width="22" height="22" x="12.8" y="20.6">H</text>
          <text class="level3" width="22" height="22" x="38" y="43.4">_</text>
          <text class="level4" width="22" height="22" x="38" y="20.6">–</text>
          <text class="level5 dk" width="22" height="22" x="38" y="43.4">(</text>
          <text class="level6 dk" width="22" height="22" x="38" y="20.6"/>
        </g>
      </g>
      <g class="letterKey" finger="l2" id="KeyB" transform="translate(375, 0)">
        <rect class="" width="52" height="52" rx="5" ry="5"/>
        <g class="key">
          <text class="level1" width="22" height="22" x="12.8" y="43.4"/>
          <text class="level2" width="22" height="22" x="12.8" y="20.6">Z</text>
          <text class="level3" width="22" height="22" x="38" y="43.4">#</text>
          <text class="level4" width="22" height="22" x="38" y="20.6"/>
          <text class="level5 dk" width="22" height="22" x="38" y="43.4">)</text>
          <text class="level6 dk" width="22" height="22" x="38" y="20.6"/>
        </g>
      </g>
    </g>
    <g class="right">
      <g class="letterKey" finger="r2" id="KeyN" transform="translate(435, 0)">
        <rect class="" width="52" height="52" rx="5" ry="5"/>
        <g class="key">
          <text class="level1" width="22" height="22" x="12.8" y="43.4"/>
          <text class="level2" width="22" height="22" x="12.8" y="20.6">B</text>
          <text class="level3" width="22" height="22" x="38" y="43.4">|</text>
          <text class="level4" width="22" height="22" x="38" y="20.6">¦</text>
          <text class="level5 dk" width="22" height="22" x="38" y="43.4">—</text>
          <text class="level6 dk" width="22" height="22" x="38" y="20.6"/>
        </g>
      </g>
      <g class="letterKey" finger="r2" id="KeyM" transform="translate(495, 0)">
        <rect class="" width="52" height="52" rx="5" ry="5"/>
        <g class="key">
          <text class="level1" width="22" height="22" x="12.8" y="43.4"/>
          <text class="level2" width="22" height="22" x="12.8" y="20.6">P</text>
          <text class="level3" width="22" height="22" x="38" y="43.4">!</text>
          <text class="level4" width="22" height="22" x="38" y="20.6">¬</text>
          <text class="level5 dk" width="22" height="22" x="38" y="43.4">·</text>
          <text class="level6 dk" width="22" height="22" x="38" y="20.6">•</text>
        </g>
      </g>
      <g class="letterKey" finger="r3" id="Comma" transform="translate(555, 0)">
        <rect class="" width="52" height="52" rx="5" ry="5"/>
        <g class="key">
          <text class="level1" width="22" height="22" x="12.8" y="43.4"/>
          <text class="level2" width="22" height="22" x="12.8" y="20.6">M</text>
          <text class="level3" width="22" height="22" x="38" y="43.4">;</text>
          <text class="level4 deadKey diacritic" width="22" height="22" x="38" y="20.6">¸</text>
          <text class="level5 dk" width="22" height="22" x="38" y="43.4">µ</text>
          <text class="level6 dk" width="22" height="22" x="38" y="20.6"/>
        </g>
      </g>
      <g class="letterKey" finger="r4" id="Period" transform="translate(615, 0)">
        <rect class="" width="52" height="52" rx="5" ry="5"/>
        <g class="key">
          <text class="level1" width="22" height="22" x="12.8" y="43.4"/>
          <text class="level2" width="22" height="22" x="12.8" y="20.6">W</text>
          <text class="level3" width="22" height="22" x="38" y="43.4">:</text>
          <text class="level4" width="22" height="22" x="38" y="20.6"/>
          <text class="level5 dk" width="22" height="22" x="38" y="43.4">ß</text>
          <text class="level6 dk" width="22" height="22" x="38" y="20.6">ẞ</text>
        </g>
      </g>
      <g class="letterKey" finger="r5" id="Slash" transform="translate(675, 0)">
        <rect class="" width="52" height="52" rx="5" ry="5"/>
        <g class="key">
          <text class="level1" width="22" height="22" x="12.8" y="43.4"/>
          <text class="level2" width="22" height="22" x="12.8" y="20.6">X</text>
          <text class="level3" width="22" height="22" x="38" y="43.4">?</text>
          <text class="level4" width="22" height="22" x="38" y="20.6"/>
          <text class="level5 dk" width="22" height="22" x="38" y="43.4"/>
          <text class="level6 dk" width="22" height="22" x="38" y="20.6"/>
        </g>
      </g>
      <g class="pinkyKey" finger="r5" id="IntlRo" transform="translate(735, 0)">
        <rect class="" width="52" height="52" rx="5" ry="5"/>
        <g class="key"/>
      </g>
      <g class="specialKey" finger="r5" id="ShiftRight" transform="translate(735, 0)">
        <rect class="ansi" width="157" height="52" rx="5" ry="5"/>
        <rect class="abnt" width="97" height="52" rx="5" ry="5" x="60"/>
        <rect class="ol50 ol60" width="67" height="112" rx="5" ry="5" y="-60"/>
        <rect class="ol40" width="67" height="52" rx="5" ry="5"/>
        <text class="ansi" width="22" height="22" x="16.4" y="42.8">⇧</text>
        <text class="ergo" width="22" height="22" x="16.4" y="42.8">⇧</text>
        <text class="abnt" width="22" height="22" x="16.4" y="42.8" transform="translate(60, 0)">⇧</text>
      </g>
    </g>
  </g>
  <g id="row_AA" text-anchor="middle">
    <g class="left">
      <g class="specialKey" finger="l5" id="ControlLeft" transform="translate(0, 0)">
        <rect class="" width="67" height="52" rx="5" ry="5"/>
        <rect class="ergo" width="67" height="52" rx="5" ry="5"/>
        <text class="win gnu" width="22" height="22" x="11" y="42.8" text-anchor="start">Ctrl</text>
        <text class="mac" width="22" height="22" x="16.4" y="42.8">⌃</text>
      </g>
      <g class="specialKey" finger="l1" id="MetaLeft" transform="translate(75, 0)">
        <rect class="" width="67" height="52" rx="5" ry="5"/>
        <rect class="ergo" width="82" height="52" rx="5" ry="5"/>
        <text class="win" width="22" height="22" x="11" y="42.8" text-anchor="start">Win</text>
        <text class="gnu" width="22" height="22" x="11" y="42.8" text-anchor="start">Super</text>
        <text class="mac" width="22" height="22" x="16.4" y="42.8">⌘</text>
      </g>
      <g class="specialKey" finger="l1" id="AltLeft" transform="translate(150, 0)">
        <rect class="" width="67" height="52" rx="5" ry="5"/>
        <rect class="ergo" width="82" height="52" rx="5" ry="5"/>
        <text class="win gnu" width="22" height="22" x="11" y="42.8" text-anchor="start">Alt</text>
        <text class="mac" width="22" height="22" x="16.4" y="42.8">⌥</text>
      </g>
      <g class="specialKey" finger="l1" id="Lang2" transform="translate(225, 0)">
        <rect class="" width="52" height="52" rx="5" ry="5"/>
        <text class="" width="22" height="22" x="20" y="42.8">한자</text>
      </g>
      <g class="specialKey" finger="l1" id="NonConvert" transform="translate(225, 0)">
        <rect class="" width="52" height="52" rx="5" ry="5"/>
        <text class="" width="22" height="22" x="26" y="42.8">無変換</text>
      </g>
    </g>
    <g class="homeKey" finger="m1" id="Space" transform="translate(225, 0)">
      <rect class="ansi" width="367" height="52" rx="5" ry="5"/>
      <rect class="ol60" width="322" height="52" rx="5" ry="5" x="-60"/>
      <rect class="ol50 ol40" width="262" height="52" rx="5" ry="5"/>
      <rect class="ks" width="247" height="52" rx="5" ry="5" x="60"/>
      <rect class="jis" width="187" height="52" rx="5" ry="5" x="60"/>
    </g>
    <g class="right">
      <g class="specialKey" finger="r1" id="Convert" transform="translate(480, 0)">
        <rect class="" width="52" height="52" rx="5" ry="5"/>
        <text class="" width="22" height="22" x="26" y="42.8">変換</text>
      </g>
      <g class="specialKey" finger="r1" id="KanaMode" transform="translate(540, 0)">
        <rect class="" width="52" height="52" rx="5" ry="5"/>
        <text class="" width="22" height="22" x="26" y="20">カタカナ</text>
        <text class="" width="22" height="22" x="26" y="32">ひらがな</text>
        <text class="" width="22" height="22" x="26" y="44">ローマ字</text>
      </g>
      <g class="specialKey" finger="r1" id="Lang1" transform="translate(540, 0)">
        <rect class="" width="52" height="52" rx="5" ry="5"/>
        <text class="" width="22" height="22" x="20" y="42.8">한/영</text>
      </g>
      <g class="specialKey" finger="r1" id="AltRight" transform="translate(600, 0)">
        <rect class="" width="67" height="52" rx="5" ry="5"/>
        <rect class="ergo" width="82" height="52" rx="5" ry="5"/>
        <text class="win gnu" width="22" height="22" x="11" y="42.8" text-anchor="start">Alt</text>
        <text class="mac" width="22" height="22" x="16.4" y="42.8">⌥</text>
      </g>
      <g class="specialKey" finger="r1" id="MetaRight" transform="translate(690, 0)">
        <rect class="" width="67" height="52" rx="5" ry="5"/>
        <rect class="ergo" width="82" height="52" rx="5" ry="5"/>
        <text class="win" width="22" height="22" x="11" y="42.8" text-anchor="start">Win</text>
        <text class="gnu" width="22" height="22" x="11" y="42.8" text-anchor="start">Super</text>
        <text class="mac" width="22" height="22" x="16.4" y="42.8">⌘</text>
      </g>
      <g class="specialKey" finger="r5" id="ContextMenu" transform="translate(750, 0)">
        <rect class="" width="67" height="52" rx="5" ry="5"/>
        <rect class="ergo" width="52" height="52" rx="5" ry="5"/>
        <text class="" width="22" height="22" x="16.4" y="42.8">☰</text>
        <text class="ol60" width="22" height="22" x="16.4" y="42.8">☰</text>
      </g>
      <g class="specialKey" finger="r5" id="ControlRight" transform="translate(825, 0)">
        <rect class="" width="67" height="52" rx="5" ry="5"/>
        <rect class="ergo" width="67" height="52" rx="5" ry="5"/>
        <text class="win gnu" width="22" height="22" x="11" y="42.8" text-anchor="start">Ctrl</text>
        <text class="mac" width="22" height="22" x="16.4" y="42.8">⌃</text>
      </g>
    </g>
  </g>
</svg>
